<svg id="svg" version="1.1" xmlns="http://www.w3.org/2000/svg" xmlns:xlink="http://www.w3.org/1999/xlink" width="400" height="400" viewBox="0, 0, 400,400"><g id="svgg"><path id="path0" d="M122.628 18.000 C 105.501 39.197,92.281 67.838,85.607 98.200 C 85.123 100.400,84.579 102.740,84.397 103.400 C 84.216 104.060,83.774 106.220,83.415 108.200 C 83.057 110.180,82.595 112.610,82.388 113.600 C 82.031 115.311,80.832 122.781,80.012 128.400 C 78.386 139.537,76.162 165.058,76.761 165.701 C 76.915 165.866,77.374 165.056,77.780 163.901 C 80.828 155.226,88.190 143.728,95.751 135.834 L 98.400 133.067 98.400 130.102 C 98.400 126.094,99.619 114.724,101.026 105.600 C 104.451 83.401,110.611 63.016,119.599 44.137 C 123.650 35.630,123.692 35.639,133.319 47.200 C 144.348 60.444,154.575 79.525,161.188 99.200 C 163.274 105.405,162.507 104.893,168.611 104.156 C 171.465 103.812,176.353 103.318,179.473 103.059 C 186.199 102.500,185.871 102.713,184.567 99.761 C 172.377 72.167,150.544 40.483,129.104 19.273 L 124.933 15.147 122.628 18.000 M270.959 20.900 C 249.305 42.918,229.092 72.478,217.033 99.761 C 215.729 102.713,215.401 102.500,222.127 103.059 C 225.247 103.318,230.135 103.812,232.989 104.156 C 239.093 104.893,238.326 105.405,240.412 99.200 C 248.189 76.065,260.514 54.732,274.943 39.433 C 277.505 36.717,278.918 37.662,282.012 44.160 C 289.754 60.423,296.425 81.037,299.213 97.315 C 301.503 110.688,303.185 124.674,303.195 130.434 L 303.200 133.067 305.849 135.834 C 313.410 143.728,320.772 155.226,323.820 163.901 C 324.226 165.056,324.685 165.866,324.839 165.701 C 325.438 165.058,323.214 139.537,321.588 128.400 C 320.768 122.781,319.569 115.311,319.212 113.600 C 319.005 112.610,318.543 110.180,318.185 108.200 C 317.826 106.220,317.384 104.060,317.203 103.400 C 317.021 102.740,316.477 100.400,315.993 98.200 C 310.007 70.967,297.141 41.621,283.166 23.326 C 281.033 20.533,276.748 15.200,276.637 15.200 C 276.597 15.200,274.042 17.765,270.959 20.900 M187.200 108.003 C 165.090 109.300,142.429 113.902,130.200 119.579 C 129.760 119.783,127.330 120.919,124.800 122.103 C 94.943 136.076,77.745 163.240,75.987 199.200 C 74.673 226.099,68.857 248.959,56.351 276.387 C 52.462 284.915,52.494 284.813,53.500 285.452 C 69.168 295.406,77.676 300.269,90.800 306.771 C 106.265 314.434,123.928 321.555,136.000 324.994 C 146.127 327.879,148.235 328.439,154.000 329.777 C 161.051 331.413,170.724 333.074,180.200 334.275 C 188.265 335.298,213.335 335.298,221.400 334.275 C 238.019 332.168,247.581 330.159,265.600 324.990 C 268.955 324.028,277.388 321.124,278.505 320.546 C 279.116 320.230,281.242 319.440,283.230 318.790 C 298.879 313.676,323.975 300.779,348.100 285.452 C 349.106 284.813,349.138 284.915,345.249 276.387 C 337.437 259.254,332.987 246.084,329.238 229.000 C 327.619 221.619,326.097 209.111,325.613 199.200 C 323.855 163.240,306.657 136.076,276.800 122.103 C 274.270 120.919,271.840 119.783,271.400 119.579 C 253.572 111.303,216.892 106.260,187.200 108.003 M253.886 145.000 C 282.940 147.673,297.985 161.779,301.790 189.914 C 302.813 197.483,302.672 260.214,301.614 267.600 C 298.603 288.633,289.931 300.404,271.911 307.919 C 269.952 308.736,263.491 310.308,259.000 311.062 C 254.872 311.754,251.213 311.800,199.800 311.800 L 145.000 311.800 140.000 310.891 C 114.006 306.163,100.166 290.847,97.988 264.400 C 97.127 253.950,97.706 191.080,98.710 186.000 C 103.768 160.396,118.409 147.598,145.600 145.011 C 154.103 144.202,245.113 144.193,253.886 145.000 " stroke="none" fill="#f99a33" fill-rule="evenodd"></path><path id="path1" d="M146.400 182.351 C 143.321 183.024,141.384 184.621,140.034 187.600 C 138.930 190.035,138.747 219.814,139.817 222.848 C 142.572 230.658,158.299 231.262,162.055 223.702 C 164.398 218.987,163.546 188.736,160.975 185.341 C 158.940 182.654,151.753 181.179,146.400 182.351 M243.333 182.360 C 240.682 183.041,238.525 184.693,237.439 186.873 L 236.400 188.957 236.404 205.379 L 236.408 221.800 237.358 223.840 C 240.483 230.552,255.079 230.840,258.846 224.264 L 259.800 222.600 259.917 206.305 C 260.059 186.442,259.884 185.610,255.038 183.107 C 253.245 182.181,245.864 181.710,243.333 182.360 M197.589 248.688 C 195.342 250.250,195.013 250.986,193.789 257.198 C 191.057 271.054,170.512 276.916,156.748 267.766 C 152.197 264.740,149.222 259.895,149.191 255.458 C 149.139 247.923,139.491 246.056,136.340 252.971 C 135.680 254.421,137.669 263.057,139.566 266.976 C 149.050 286.571,180.627 290.847,197.680 274.845 L 200.829 271.890 202.230 273.527 C 215.306 288.803,243.425 289.015,257.834 273.946 C 265.626 265.797,268.093 252.448,262.398 249.247 C 257.765 246.643,253.667 249.638,252.783 256.275 C 249.917 277.791,211.044 278.264,208.003 256.819 C 206.985 249.644,201.911 245.682,197.589 248.688 M166.861 341.500 C 162.833 356.598,165.671 368.040,175.865 377.800 C 182.412 384.068,185.944 385.312,191.734 383.387 L 195.091 382.271 192.159 379.942 C 189.221 377.607,185.692 373.679,183.677 370.501 C 182.749 369.036,182.407 368.800,181.200 368.792 C 171.373 368.725,168.703 354.076,177.768 349.959 C 187.502 345.538,196.158 358.020,188.762 365.813 L 187.611 367.027 189.053 369.169 C 190.975 372.022,194.882 375.883,197.971 377.981 L 200.482 379.685 203.141 377.861 C 209.140 373.747,214.663 366.936,212.633 366.157 C 210.311 365.266,208.731 358.449,210.094 355.197 C 213.148 347.906,222.985 347.037,227.439 353.665 C 231.461 359.649,227.500 367.878,220.202 368.701 C 218.472 368.896,218.288 369.042,216.576 371.594 C 214.825 374.205,210.230 379.050,207.800 380.849 C 207.140 381.337,206.450 381.865,206.266 382.022 C 205.849 382.379,212.521 384.533,214.042 384.533 C 217.112 384.533,225.951 377.454,229.528 372.131 C 235.492 363.257,236.942 354.358,234.210 343.400 C 232.948 338.336,233.026 338.427,230.280 338.845 C 209.580 341.999,194.573 342.096,173.800 339.212 C 170.720 338.784,168.085 338.426,167.944 338.417 C 167.803 338.408,167.316 339.795,166.861 341.500 M198.301 386.365 C 195.894 387.489,196.058 387.600,200.133 387.600 C 204.297 387.600,204.798 387.329,202.586 386.274 C 200.862 385.452,200.227 385.465,198.301 386.365 " stroke="none" fill="#04f9f9" fill-rule="evenodd"></path><path id="path2" d="M122.804 8.196 C 122.532 8.523,122.150 8.693,121.955 8.572 C 121.760 8.451,121.600 8.606,121.600 8.914 C 121.600 9.223,121.209 9.819,120.732 10.238 C 119.927 10.945,119.883 10.948,120.128 10.279 C 120.294 9.823,120.236 9.654,119.968 9.820 C 119.736 9.963,119.632 10.307,119.738 10.583 C 120.019 11.314,118.697 13.112,118.044 12.887 C 117.739 12.782,117.601 12.878,117.738 13.099 C 117.964 13.465,116.382 15.305,114.576 16.778 C 114.084 17.178,114.018 17.406,114.358 17.519 C 114.711 17.637,114.656 17.897,114.162 18.441 C 113.785 18.859,113.592 19.200,113.734 19.200 C 113.876 19.200,113.463 19.707,112.815 20.326 C 112.167 20.945,111.453 21.935,111.228 22.526 C 110.976 23.189,110.519 23.600,110.034 23.600 C 109.601 23.600,109.137 23.778,109.003 23.995 C 108.860 24.227,109.032 24.286,109.419 24.137 C 110.276 23.808,109.480 25.288,108.064 26.655 C 107.549 27.152,107.244 27.748,107.387 27.979 C 107.530 28.211,107.457 28.400,107.224 28.400 C 106.991 28.400,106.800 28.670,106.800 29.000 C 106.800 29.330,106.620 29.600,106.400 29.600 C 106.180 29.600,106.000 29.870,106.000 30.200 C 106.000 30.540,105.641 30.800,105.173 30.800 C 104.527 30.800,104.402 30.976,104.601 31.602 C 104.763 32.114,104.556 32.784,104.028 33.456 C 103.572 34.034,103.200 34.739,103.200 35.021 C 103.200 35.303,102.995 35.602,102.745 35.685 C 102.494 35.769,101.964 36.639,101.567 37.618 C 101.170 38.598,100.835 39.175,100.822 38.900 C 100.810 38.625,100.637 38.400,100.437 38.400 C 100.238 38.400,100.164 38.739,100.272 39.153 C 100.484 39.963,99.404 42.400,98.834 42.400 C 98.644 42.400,98.371 43.030,98.226 43.800 C 98.082 44.570,97.794 45.200,97.588 45.200 C 97.381 45.200,97.011 45.998,96.765 46.973 C 96.520 47.948,96.090 48.833,95.811 48.940 C 95.531 49.048,95.178 49.634,95.025 50.244 C 94.872 50.854,94.371 51.678,93.912 52.076 C 93.453 52.474,93.279 52.800,93.526 52.800 C 93.773 52.800,93.865 53.085,93.732 53.434 C 93.536 53.944,93.422 53.964,93.145 53.534 C 92.938 53.212,92.900 53.518,93.051 54.300 C 93.188 55.015,93.141 55.600,92.948 55.600 C 92.754 55.600,92.353 56.185,92.057 56.900 C 91.761 57.615,91.282 58.740,90.993 59.400 C 90.703 60.060,90.338 61.293,90.181 62.140 C 90.011 63.057,89.776 63.485,89.600 63.199 C 89.429 62.923,89.188 63.488,89.032 64.527 C 88.883 65.521,88.498 66.553,88.177 66.819 C 87.856 67.086,87.482 67.997,87.346 68.845 C 87.211 69.692,86.975 70.308,86.822 70.214 C 86.670 70.119,86.623 70.573,86.718 71.221 C 86.813 71.872,86.707 72.400,86.481 72.400 C 86.255 72.400,85.944 73.165,85.790 74.100 C 85.636 75.035,85.334 76.017,85.120 76.282 C 84.906 76.548,84.847 76.953,84.989 77.182 C 85.131 77.412,84.987 77.600,84.670 77.600 C 84.270 77.600,84.008 78.275,83.818 79.794 C 83.667 81.000,83.403 82.075,83.231 82.181 C 83.058 82.287,82.682 83.775,82.394 85.487 C 82.106 87.199,81.642 88.737,81.364 88.904 C 81.085 89.071,80.733 90.199,80.582 91.409 C 80.430 92.620,80.148 93.709,79.953 93.829 C 79.759 93.949,79.600 94.382,79.600 94.790 C 79.600 95.199,79.375 95.624,79.100 95.735 C 78.825 95.846,78.786 95.951,79.013 95.968 C 79.513 96.007,78.831 101.600,78.326 101.600 C 78.147 101.600,78.000 102.219,78.000 102.976 C 78.000 103.733,77.820 104.464,77.600 104.600 C 77.380 104.736,77.200 105.557,77.200 106.424 C 77.200 107.291,77.047 108.000,76.859 108.000 C 76.672 108.000,76.291 110.205,76.013 112.900 C 75.735 115.595,75.367 117.980,75.194 118.200 C 75.022 118.420,74.748 120.219,74.585 122.199 C 74.422 124.178,74.061 126.158,73.784 126.599 C 73.485 127.073,73.084 130.260,72.803 134.400 C 72.541 138.250,72.176 141.760,71.991 142.200 C 71.647 143.022,70.796 157.580,70.799 162.620 C 70.799 164.344,70.606 165.634,70.300 165.940 C 69.920 166.320,69.735 171.477,69.530 187.469 C 69.349 201.594,69.119 208.641,68.830 208.930 C 68.594 209.166,68.400 210.259,68.400 211.359 C 68.400 215.551,67.519 222.594,66.908 223.286 C 66.553 223.687,66.383 224.398,66.497 224.996 C 66.605 225.558,66.537 226.115,66.346 226.233 C 66.156 226.351,66.000 227.157,66.000 228.024 C 66.000 228.891,65.849 229.600,65.665 229.600 C 65.480 229.600,65.091 231.400,64.800 233.600 C 64.509 235.800,64.120 237.600,63.935 237.600 C 63.751 237.600,63.600 238.039,63.600 238.576 C 63.600 239.113,63.420 239.664,63.200 239.800 C 62.980 239.936,62.800 240.487,62.800 241.024 C 62.800 241.561,62.620 242.000,62.400 242.000 C 62.180 242.000,62.000 242.255,62.000 242.567 C 62.000 242.878,61.775 243.224,61.500 243.335 C 61.225 243.446,61.189 243.551,61.421 243.568 C 61.903 243.605,61.247 248.400,60.759 248.400 C 60.600 248.400,60.351 249.106,60.205 249.969 C 60.060 250.831,59.716 251.623,59.443 251.728 C 59.169 251.833,58.713 252.972,58.428 254.260 C 58.144 255.547,57.774 256.780,57.607 257.000 C 57.440 257.220,57.066 258.345,56.776 259.500 C 56.486 260.655,56.029 261.600,55.760 261.600 C 55.490 261.600,55.149 262.321,55.000 263.202 C 54.851 264.083,54.565 264.702,54.365 264.578 C 54.164 264.454,54.000 264.618,54.000 264.943 C 54.000 265.268,53.775 265.624,53.500 265.735 C 53.155 265.874,53.145 265.947,53.468 265.968 C 54.074 266.009,53.378 268.679,52.543 269.514 C 52.223 269.834,51.857 270.615,51.730 271.248 C 51.604 271.882,51.366 272.400,51.202 272.400 C 51.038 272.400,50.678 273.207,50.402 274.193 C 50.126 275.179,49.743 275.888,49.550 275.769 C 49.358 275.650,49.200 275.836,49.200 276.182 C 49.200 276.995,48.404 278.403,47.439 279.296 C 47.020 279.683,46.879 280.000,47.126 280.000 C 47.373 280.000,47.465 280.285,47.332 280.634 C 47.135 281.146,47.020 281.165,46.732 280.734 C 46.509 280.399,46.476 280.648,46.644 281.400 C 46.792 282.060,46.770 282.468,46.596 282.306 C 46.116 281.861,45.200 283.914,45.200 285.436 C 45.200 286.933,46.363 289.150,47.031 288.925 C 47.574 288.741,49.643 290.624,49.288 290.979 C 49.143 291.124,49.363 291.112,49.778 290.953 C 50.207 290.788,50.435 290.822,50.308 291.032 C 50.185 291.234,50.335 291.632,50.642 291.916 C 50.949 292.200,51.200 292.249,51.200 292.024 C 51.200 291.429,53.140 292.393,54.574 293.702 C 55.239 294.308,56.104 294.906,56.497 295.031 C 56.890 295.156,57.120 295.406,57.008 295.587 C 56.896 295.768,57.083 296.023,57.423 296.154 C 57.777 296.289,57.937 296.222,57.797 295.995 C 57.663 295.778,57.743 295.600,57.976 295.600 C 58.209 295.600,58.400 295.780,58.400 296.000 C 58.400 296.220,58.578 296.400,58.795 296.400 C 59.438 296.400,60.797 297.728,60.832 298.389 C 60.851 298.755,60.940 298.812,61.055 298.529 C 61.352 297.802,63.516 298.705,63.827 299.686 C 63.986 300.186,64.193 300.335,64.359 300.067 C 64.536 299.780,65.016 299.960,65.749 300.590 C 66.364 301.119,67.393 301.667,68.034 301.807 C 68.675 301.948,69.200 302.215,69.200 302.401 C 69.200 302.586,69.808 302.939,70.552 303.184 C 72.224 303.736,73.504 305.007,72.724 305.343 C 72.436 305.467,72.722 305.459,73.360 305.326 C 74.176 305.155,74.435 305.219,74.236 305.542 C 74.069 305.811,74.210 306.000,74.576 306.000 C 74.919 306.000,75.200 306.135,75.201 306.300 C 75.201 306.465,75.720 306.618,76.353 306.640 C 76.987 306.662,77.920 307.067,78.428 307.540 C 78.936 308.013,79.587 308.400,79.875 308.400 C 80.164 308.400,80.400 308.557,80.400 308.748 C 80.400 308.939,81.210 309.323,82.200 309.600 C 83.190 309.877,84.000 310.221,84.000 310.364 C 84.000 310.507,84.556 310.835,85.237 311.091 C 85.917 311.348,86.375 311.718,86.254 311.912 C 86.134 312.107,86.252 312.284,86.518 312.305 C 87.316 312.368,90.639 313.544,90.100 313.573 C 89.825 313.588,89.600 313.774,89.600 313.987 C 89.600 314.201,89.870 314.271,90.200 314.145 C 90.551 314.010,90.803 314.140,90.806 314.457 C 90.811 314.871,90.886 314.883,91.125 314.508 C 91.358 314.141,91.802 314.263,92.867 314.987 C 93.654 315.522,94.815 316.087,95.449 316.243 C 96.082 316.400,96.915 316.887,97.300 317.325 C 97.685 317.764,98.000 317.919,98.000 317.671 C 98.000 317.131,99.852 317.744,100.799 318.597 C 101.130 318.894,101.908 319.264,102.528 319.419 C 103.149 319.574,103.863 320.032,104.115 320.436 C 104.443 320.961,104.853 321.101,105.547 320.927 C 106.189 320.766,106.429 320.830,106.253 321.114 C 106.107 321.351,106.170 321.658,106.393 321.796 C 106.617 321.934,106.800 322.397,106.800 322.824 C 106.800 323.251,107.001 323.600,107.247 323.600 C 107.492 323.600,107.610 323.920,107.507 324.312 C 107.405 324.703,107.581 325.267,107.900 325.564 C 108.380 326.013,108.387 326.162,107.939 326.446 C 107.488 326.732,107.489 326.789,107.943 326.794 C 108.260 326.797,108.390 327.049,108.255 327.400 C 107.979 328.121,108.633 328.213,108.969 327.500 C 109.099 327.225,109.099 327.540,108.970 328.199 C 108.841 328.859,108.858 329.275,109.009 329.124 C 109.497 328.637,111.231 330.873,110.979 331.665 C 110.807 332.208,110.951 332.400,111.530 332.400 C 112.015 332.400,112.402 332.752,112.545 333.324 C 112.773 334.233,113.418 335.111,115.800 337.755 C 118.336 340.570,119.759 342.547,119.056 342.277 C 118.615 342.108,118.455 342.165,118.620 342.432 C 118.763 342.664,119.111 342.766,119.392 342.658 C 119.927 342.453,122.569 344.898,122.205 345.262 C 122.089 345.377,122.356 345.798,122.798 346.198 C 123.647 346.966,123.938 346.498,123.120 345.680 C 122.856 345.416,122.766 345.200,122.921 345.200 C 123.075 345.200,123.786 345.803,124.501 346.539 C 125.215 347.276,126.160 348.017,126.600 348.186 C 127.108 348.381,127.217 348.561,126.900 348.680 C 126.022 349.008,126.363 349.500,127.469 349.500 C 128.057 349.500,128.751 349.793,129.013 350.150 C 129.274 350.508,129.668 350.800,129.888 350.800 C 130.108 350.800,130.956 351.430,131.773 352.200 C 133.213 353.559,133.881 353.979,133.423 353.237 C 133.300 353.038,133.559 352.969,133.999 353.084 C 134.440 353.199,134.800 353.458,134.800 353.659 C 134.800 353.860,135.115 354.144,135.500 354.290 C 136.358 354.615,136.996 355.222,137.304 356.007 C 137.441 356.355,137.550 356.399,137.568 356.113 C 137.586 355.836,137.874 355.730,138.234 355.868 C 138.744 356.064,138.764 356.178,138.334 356.455 C 138.012 356.662,138.355 356.706,139.200 356.566 C 140.257 356.390,140.453 356.437,140.000 356.760 C 139.477 357.133,139.486 357.189,140.067 357.194 C 140.433 357.197,140.824 357.425,140.935 357.700 C 141.071 358.036,141.147 358.048,141.168 357.737 C 141.201 357.267,142.800 357.474,142.800 357.949 C 142.800 358.268,144.608 359.062,146.200 359.442 C 146.860 359.599,147.715 360.087,148.100 360.525 C 148.485 360.964,148.800 361.140,148.800 360.917 C 148.800 360.643,149.387 360.645,150.600 360.923 C 151.590 361.149,152.400 361.551,152.400 361.816 C 152.400 362.081,153.165 362.418,154.100 362.565 C 156.172 362.891,157.998 363.654,158.006 364.198 C 158.009 364.419,158.166 364.357,158.354 364.061 C 158.744 363.445,160.400 364.919,160.400 365.881 C 160.400 366.493,161.234 368.079,161.754 368.457 C 161.949 368.598,161.988 369.228,161.842 369.857 C 161.674 370.577,161.707 370.803,161.932 370.466 C 162.220 370.035,162.335 370.054,162.532 370.566 C 162.670 370.926,162.564 371.212,162.287 371.227 C 162.019 371.242,162.205 371.449,162.700 371.688 C 163.195 371.927,163.600 372.303,163.600 372.523 C 163.600 372.744,164.050 373.514,164.600 374.236 C 165.150 374.957,165.600 375.717,165.600 375.924 C 165.600 376.132,165.865 376.522,166.188 376.790 C 166.512 377.059,166.737 377.666,166.688 378.139 C 166.621 378.792,166.799 378.980,167.424 378.918 C 168.259 378.835,169.835 380.831,169.332 381.334 C 168.990 381.676,170.006 382.831,170.553 382.721 C 171.224 382.587,172.542 383.416,174.163 384.990 C 174.961 385.766,175.763 386.400,175.945 386.400 C 176.127 386.400,176.799 386.850,177.438 387.400 C 178.077 387.949,178.836 388.399,179.124 388.400 C 179.412 388.400,179.550 388.558,179.431 388.750 C 179.312 388.943,180.066 389.334,181.107 389.619 C 182.148 389.905,183.146 390.381,183.325 390.678 C 183.503 390.974,183.849 391.094,184.093 390.943 C 184.370 390.771,184.449 390.894,184.304 391.272 C 184.126 391.737,184.303 391.831,185.079 391.683 C 185.632 391.577,186.205 391.684,186.351 391.921 C 186.497 392.157,188.233 392.579,190.208 392.857 C 192.184 393.136,193.904 393.513,194.031 393.695 C 194.402 394.224,205.996 394.101,206.647 393.561 C 206.985 393.280,207.938 393.179,209.057 393.305 C 210.075 393.420,210.680 393.373,210.403 393.202 C 210.097 393.013,210.708 392.778,211.949 392.607 C 213.077 392.452,214.000 392.162,214.000 391.962 C 214.000 391.763,214.372 391.600,214.826 391.600 C 215.652 391.600,217.223 390.924,217.600 390.406 C 218.057 389.778,220.350 389.251,220.545 389.729 C 220.650 389.988,220.751 389.881,220.768 389.491 C 220.786 389.102,221.295 388.568,221.900 388.306 C 222.505 388.044,223.436 387.411,223.968 386.901 C 224.575 386.319,225.034 386.131,225.199 386.398 C 225.350 386.643,225.657 386.394,225.922 385.811 C 226.175 385.255,226.560 384.800,226.776 384.800 C 226.992 384.800,227.882 384.080,228.753 383.200 C 230.318 381.620,231.123 381.128,230.555 382.100 C 230.394 382.375,230.653 382.257,231.131 381.838 C 232.031 381.049,232.300 380.567,231.600 381.000 C 230.795 381.498,231.232 380.491,232.430 379.089 C 233.235 378.147,233.892 377.722,234.330 377.862 C 234.764 378.000,234.836 377.955,234.534 377.735 C 234.011 377.353,234.688 375.665,235.375 375.637 C 235.581 375.629,235.787 375.369,235.832 375.060 C 236.020 373.779,236.555 372.564,237.178 372.000 C 238.045 371.215,239.063 368.982,239.411 367.100 C 239.564 366.275,239.849 365.600,240.045 365.600 C 240.240 365.600,240.400 365.227,240.400 364.771 C 240.400 363.543,241.206 362.950,243.306 362.635 C 244.340 362.480,245.325 362.123,245.493 361.841 C 245.900 361.162,249.200 360.328,249.200 360.904 C 249.200 361.134,249.523 360.950,249.918 360.495 C 250.313 360.040,251.305 359.541,252.123 359.388 C 252.942 359.234,253.776 358.814,253.977 358.454 C 254.179 358.094,254.401 357.858,254.472 357.928 C 254.653 358.109,256.941 357.210,257.192 356.859 C 257.630 356.247,260.354 355.666,260.550 356.143 C 260.653 356.394,260.751 356.289,260.768 355.909 C 260.786 355.529,261.295 354.903,261.900 354.518 C 262.505 354.133,263.090 353.714,263.200 353.587 C 263.310 353.459,264.030 353.101,264.800 352.792 C 265.570 352.483,266.549 351.908,266.975 351.515 C 267.402 351.122,267.998 350.800,268.299 350.800 C 268.601 350.800,268.752 350.646,268.636 350.458 C 268.520 350.271,268.869 349.915,269.413 349.667 C 270.125 349.342,270.400 349.340,270.400 349.658 C 270.400 349.947,270.613 349.921,271.019 349.584 C 271.474 349.207,271.512 348.993,271.165 348.778 C 270.846 348.581,271.002 348.323,271.646 347.985 C 272.171 347.709,272.748 347.232,272.930 346.924 C 273.119 346.603,273.573 346.464,273.996 346.599 C 274.913 346.890,275.499 346.051,274.751 345.518 C 274.324 345.213,274.358 345.175,274.900 345.350 C 275.285 345.474,275.600 345.438,275.600 345.271 C 275.600 344.914,278.293 342.000,278.623 342.000 C 278.746 342.000,278.737 342.178,278.603 342.395 C 278.457 342.632,278.640 342.683,279.059 342.522 C 279.466 342.366,279.565 342.188,279.294 342.098 C 278.944 341.981,278.949 341.738,279.314 341.115 C 280.055 339.851,281.771 338.084,281.485 338.880 C 281.141 339.835,282.291 339.351,282.851 338.305 C 283.161 337.726,283.158 337.579,282.840 337.775 C 282.224 338.156,282.289 337.368,282.927 336.729 C 283.216 336.438,283.770 335.716,284.157 335.124 C 284.544 334.532,285.072 334.098,285.330 334.159 C 285.589 334.219,285.674 334.196,285.521 334.108 C 285.367 334.019,285.438 333.515,285.679 332.986 C 285.920 332.458,286.249 332.107,286.410 332.206 C 286.571 332.306,286.802 331.890,286.924 331.282 C 287.045 330.674,287.697 329.598,288.372 328.892 C 289.583 327.625,289.975 326.921,289.205 327.397 C 288.554 327.799,289.274 326.263,290.065 325.559 C 290.461 325.207,290.682 324.816,290.556 324.690 C 290.044 324.177,290.870 322.965,292.095 322.432 C 292.813 322.120,293.520 321.684,293.666 321.463 C 293.812 321.243,294.622 321.049,295.466 321.031 C 296.389 321.013,297.195 320.740,297.491 320.346 C 297.761 319.986,298.454 319.573,299.031 319.428 C 299.608 319.283,300.580 318.795,301.191 318.343 C 301.802 317.892,302.639 317.593,303.051 317.679 C 303.463 317.765,304.070 317.542,304.400 317.182 C 304.730 316.822,305.518 316.400,306.151 316.243 C 306.785 316.087,307.946 315.522,308.733 314.987 C 309.798 314.263,310.242 314.141,310.475 314.508 C 310.714 314.883,310.789 314.871,310.794 314.457 C 310.797 314.140,311.049 314.010,311.400 314.145 C 311.730 314.271,312.000 314.201,312.000 313.987 C 312.000 313.774,311.775 313.588,311.500 313.573 C 310.961 313.544,314.284 312.368,315.082 312.305 C 315.348 312.284,315.466 312.107,315.346 311.912 C 315.225 311.718,315.683 311.348,316.363 311.091 C 317.044 310.835,317.600 310.507,317.600 310.364 C 317.600 310.221,318.410 309.877,319.400 309.600 C 320.390 309.323,321.200 308.939,321.200 308.748 C 321.200 308.557,321.436 308.400,321.725 308.400 C 322.013 308.400,322.652 308.024,323.145 307.565 C 323.638 307.106,324.302 306.830,324.621 306.953 C 324.939 307.075,325.200 306.981,325.200 306.745 C 325.200 306.508,325.470 306.418,325.800 306.545 C 326.130 306.671,326.400 306.601,326.400 306.387 C 326.400 306.174,326.681 306.000,327.024 306.000 C 327.390 306.000,327.531 305.811,327.364 305.542 C 327.165 305.219,327.424 305.155,328.240 305.326 C 328.878 305.459,329.164 305.467,328.876 305.343 C 328.096 305.007,329.376 303.736,331.048 303.184 C 331.792 302.939,332.400 302.586,332.400 302.401 C 332.400 302.215,332.925 301.948,333.566 301.807 C 334.207 301.667,335.236 301.119,335.851 300.590 C 336.584 299.960,337.064 299.780,337.241 300.067 C 337.407 300.335,337.614 300.186,337.773 299.686 C 338.084 298.705,340.248 297.802,340.545 298.529 C 340.660 298.812,340.749 298.755,340.768 298.389 C 340.803 297.728,342.162 296.400,342.805 296.400 C 343.022 296.400,343.200 296.220,343.200 296.000 C 343.200 295.780,343.391 295.600,343.624 295.600 C 343.857 295.600,343.937 295.778,343.803 295.995 C 343.663 296.222,343.823 296.289,344.177 296.154 C 344.517 296.023,344.704 295.768,344.592 295.587 C 344.480 295.406,344.710 295.156,345.103 295.031 C 345.496 294.906,346.361 294.308,347.026 293.702 C 348.460 292.393,350.400 291.429,350.400 292.024 C 350.400 292.249,350.651 292.200,350.958 291.916 C 351.265 291.632,351.415 291.234,351.292 291.032 C 351.165 290.822,351.393 290.788,351.822 290.953 C 352.237 291.112,352.457 291.124,352.312 290.979 C 351.957 290.624,354.026 288.741,354.569 288.925 C 355.237 289.150,356.400 286.933,356.400 285.436 C 356.400 283.914,355.484 281.861,355.004 282.306 C 354.830 282.468,354.808 282.060,354.956 281.400 C 355.124 280.648,355.091 280.399,354.868 280.734 C 354.580 281.165,354.465 281.146,354.268 280.634 C 354.135 280.285,354.227 280.000,354.474 280.000 C 354.721 280.000,354.580 279.683,354.161 279.296 C 353.196 278.403,352.400 276.995,352.400 276.182 C 352.400 275.836,352.242 275.650,352.050 275.769 C 351.857 275.888,351.474 275.179,351.198 274.193 C 350.922 273.207,350.562 272.400,350.398 272.400 C 350.234 272.400,349.996 271.882,349.870 271.248 C 349.743 270.615,349.377 269.834,349.057 269.514 C 348.200 268.657,347.556 266.090,348.138 265.852 C 348.462 265.720,348.451 265.654,348.100 265.632 C 347.825 265.614,347.600 265.319,347.600 264.976 C 347.600 264.633,347.436 264.454,347.235 264.578 C 347.035 264.702,346.749 264.083,346.600 263.202 C 346.451 262.321,346.110 261.600,345.840 261.600 C 345.571 261.600,345.114 260.655,344.824 259.500 C 344.534 258.345,344.160 257.220,343.993 257.000 C 343.826 256.780,343.456 255.547,343.172 254.260 C 342.887 252.972,342.431 251.833,342.157 251.728 C 341.884 251.623,341.540 250.831,341.395 249.969 C 341.249 249.106,341.000 248.400,340.841 248.400 C 340.342 248.400,339.707 243.635,340.180 243.438 C 340.421 243.338,340.387 243.250,340.100 243.232 C 339.825 243.214,339.600 242.930,339.600 242.600 C 339.600 242.270,339.420 242.000,339.200 242.000 C 338.980 242.000,338.800 241.561,338.800 241.024 C 338.800 240.487,338.620 239.936,338.400 239.800 C 338.180 239.664,338.000 239.113,338.000 238.576 C 338.000 238.039,337.849 237.600,337.665 237.600 C 337.480 237.600,337.091 235.800,336.800 233.600 C 336.509 231.400,336.141 229.600,335.982 229.600 C 335.824 229.600,335.567 228.247,335.412 226.594 C 335.257 224.940,334.898 223.355,334.614 223.071 C 334.093 222.550,333.200 215.156,333.200 211.359 C 333.200 210.259,333.003 209.163,332.763 208.923 C 332.464 208.624,332.265 202.134,332.133 188.343 C 331.988 173.176,331.806 167.706,331.399 166.200 C 331.084 165.036,330.661 159.684,330.387 153.400 C 330.128 147.460,329.783 142.420,329.621 142.200 C 329.458 141.980,329.096 138.470,328.815 134.400 C 328.492 129.698,328.121 126.781,327.799 126.400 C 327.520 126.070,327.163 124.180,327.006 122.200 C 326.848 120.220,326.578 118.420,326.406 118.200 C 326.233 117.980,325.865 115.595,325.587 112.900 C 325.309 110.205,324.928 108.000,324.741 108.000 C 324.553 108.000,324.400 107.291,324.400 106.424 C 324.400 105.557,324.220 104.736,324.000 104.600 C 323.780 104.464,323.600 103.733,323.600 102.976 C 323.600 102.219,323.453 101.600,323.274 101.600 C 322.759 101.600,322.097 96.041,322.587 95.836 C 322.815 95.741,322.775 95.649,322.500 95.632 C 322.225 95.614,322.000 95.251,322.000 94.824 C 322.000 94.397,321.841 93.949,321.647 93.829 C 321.452 93.709,321.170 92.620,321.018 91.409 C 320.867 90.199,320.515 89.071,320.236 88.904 C 319.958 88.737,319.494 87.199,319.206 85.487 C 318.918 83.775,318.542 82.287,318.369 82.181 C 318.197 82.075,317.933 81.000,317.782 79.794 C 317.592 78.275,317.330 77.600,316.930 77.600 C 316.613 77.600,316.469 77.412,316.611 77.182 C 316.753 76.953,316.694 76.548,316.480 76.282 C 316.266 76.017,315.964 75.035,315.810 74.100 C 315.656 73.165,315.345 72.400,315.119 72.400 C 314.893 72.400,314.787 71.872,314.882 71.221 C 314.977 70.573,314.930 70.119,314.778 70.214 C 314.625 70.308,314.389 69.692,314.254 68.845 C 314.118 67.997,313.744 67.086,313.423 66.819 C 313.102 66.553,312.717 65.521,312.568 64.527 C 312.412 63.488,312.171 62.923,312.000 63.199 C 311.824 63.485,311.589 63.057,311.419 62.140 C 311.262 61.293,310.897 60.060,310.607 59.400 C 310.318 58.740,309.839 57.615,309.543 56.900 C 309.247 56.185,308.846 55.600,308.652 55.600 C 308.459 55.600,308.412 55.015,308.549 54.300 C 308.700 53.518,308.662 53.212,308.455 53.534 C 308.178 53.964,308.064 53.944,307.868 53.434 C 307.735 53.085,307.827 52.800,308.074 52.800 C 308.321 52.800,308.147 52.474,307.688 52.076 C 307.229 51.678,306.728 50.854,306.575 50.244 C 306.422 49.634,306.069 49.048,305.789 48.940 C 305.510 48.833,305.080 47.948,304.835 46.973 C 304.589 45.998,304.219 45.200,304.012 45.200 C 303.806 45.200,303.518 44.570,303.374 43.800 C 303.229 43.030,302.956 42.400,302.766 42.400 C 302.196 42.400,301.116 39.963,301.328 39.153 C 301.436 38.739,301.362 38.400,301.163 38.400 C 300.963 38.400,300.790 38.625,300.778 38.900 C 300.765 39.175,300.430 38.598,300.033 37.618 C 299.636 36.639,299.106 35.769,298.855 35.685 C 298.605 35.602,298.400 35.303,298.400 35.021 C 298.400 34.739,298.028 34.034,297.572 33.456 C 297.044 32.784,296.837 32.114,296.999 31.602 C 297.198 30.976,297.073 30.800,296.427 30.800 C 295.959 30.800,295.600 30.540,295.600 30.200 C 295.600 29.870,295.420 29.600,295.200 29.600 C 294.980 29.600,294.800 29.330,294.800 29.000 C 294.800 28.670,294.609 28.400,294.376 28.400 C 294.143 28.400,294.070 28.211,294.213 27.979 C 294.356 27.748,294.051 27.152,293.536 26.655 C 292.120 25.288,291.324 23.808,292.181 24.137 C 292.568 24.286,292.740 24.227,292.597 23.995 C 292.463 23.778,291.999 23.600,291.566 23.600 C 291.081 23.600,290.624 23.189,290.372 22.526 C 290.147 21.935,289.433 20.945,288.785 20.326 C 288.137 19.707,287.724 19.200,287.866 19.200 C 288.008 19.200,287.815 18.859,287.438 18.441 C 286.944 17.897,286.889 17.637,287.242 17.519 C 287.582 17.406,287.516 17.178,287.024 16.778 C 285.218 15.305,283.636 13.465,283.862 13.099 C 283.999 12.878,283.861 12.782,283.556 12.887 C 282.903 13.112,281.581 11.314,281.862 10.583 C 281.968 10.307,281.864 9.963,281.632 9.820 C 281.364 9.654,281.306 9.823,281.472 10.279 C 281.717 10.948,281.673 10.945,280.868 10.238 C 280.391 9.819,280.000 9.223,280.000 8.914 C 280.000 8.606,279.840 8.451,279.645 8.572 C 279.450 8.693,279.068 8.523,278.796 8.196 C 277.882 7.094,275.557 7.477,273.856 9.009 C 272.315 10.397,271.295 10.848,271.841 9.900 C 271.999 9.625,271.974 9.540,271.786 9.712 C 271.598 9.883,271.403 10.302,271.353 10.643 C 271.136 12.119,270.780 12.614,270.385 11.989 C 270.088 11.520,270.011 11.578,270.006 12.273 C 270.001 13.030,269.087 13.695,267.933 13.780 C 267.787 13.791,267.517 13.964,267.333 14.164 C 267.136 14.380,267.231 14.394,267.568 14.199 C 267.997 13.950,268.070 14.040,267.868 14.567 C 267.721 14.951,267.600 15.341,267.600 15.433 C 267.600 15.525,267.195 15.614,266.700 15.632 C 266.205 15.649,266.039 15.759,266.331 15.875 C 266.869 16.090,264.635 18.432,263.116 19.245 C 262.722 19.456,262.400 19.860,262.400 20.144 C 262.400 20.770,260.730 22.400,260.088 22.400 C 259.835 22.400,259.424 22.782,259.174 23.248 C 258.855 23.844,258.851 24.016,259.160 23.825 C 259.402 23.675,259.600 23.743,259.600 23.976 C 259.600 24.209,259.402 24.400,259.160 24.400 C 258.919 24.400,258.199 24.959,257.560 25.642 C 256.922 26.326,256.400 26.754,256.400 26.593 C 256.400 26.433,256.130 26.526,255.800 26.800 C 255.470 27.074,255.200 27.627,255.200 28.029 C 255.200 28.431,254.956 28.904,254.658 29.080 C 254.361 29.256,253.908 29.798,253.652 30.285 C 253.395 30.776,252.946 31.078,252.646 30.962 C 252.347 30.848,251.996 31.034,251.864 31.377 C 251.733 31.720,251.833 32.000,252.088 32.000 C 252.343 32.000,251.978 32.561,251.276 33.247 C 250.574 33.934,250.000 34.700,250.000 34.951 C 250.000 35.202,249.640 35.632,249.200 35.907 C 248.760 36.182,248.400 36.576,248.400 36.783 C 248.400 36.990,247.921 37.663,247.335 38.279 C 246.712 38.935,246.372 39.118,246.515 38.720 C 246.692 38.228,246.593 38.105,246.157 38.272 C 245.825 38.399,245.629 38.705,245.722 38.952 C 245.991 39.673,245.368 41.000,244.760 41.000 C 244.452 41.000,244.200 41.226,244.200 41.502 C 244.200 41.778,243.496 42.752,242.635 43.666 C 241.775 44.580,241.280 45.198,241.535 45.040 C 241.791 44.882,242.000 44.931,242.000 45.149 C 242.000 45.368,241.649 45.657,241.220 45.794 C 240.749 45.943,240.529 46.270,240.663 46.620 C 240.786 46.939,240.691 47.200,240.453 47.200 C 240.215 47.200,239.723 47.776,239.358 48.480 C 238.994 49.185,238.450 50.008,238.148 50.309 C 237.847 50.610,237.600 50.996,237.600 51.166 C 237.600 51.336,237.150 51.999,236.600 52.638 C 236.051 53.277,235.601 54.025,235.600 54.300 C 235.600 54.575,235.454 54.800,235.276 54.800 C 235.099 54.800,234.604 55.083,234.176 55.430 C 233.749 55.776,233.625 55.945,233.900 55.806 C 235.301 55.097,232.891 58.245,231.347 59.142 C 230.936 59.380,230.816 59.581,231.079 59.588 C 231.627 59.602,230.961 62.000,230.409 62.000 C 230.238 62.000,229.873 62.540,229.600 63.200 C 229.327 63.860,228.934 64.400,228.728 64.400 C 228.522 64.400,228.463 64.222,228.597 64.005 C 228.743 63.768,228.560 63.717,228.141 63.878 C 227.756 64.026,227.637 64.212,227.878 64.293 C 228.118 64.373,228.224 64.788,228.112 65.215 C 228.000 65.642,227.752 65.894,227.559 65.775 C 227.367 65.656,227.305 65.807,227.421 66.111 C 227.544 66.430,227.246 66.849,226.717 67.104 C 226.212 67.347,226.008 67.558,226.263 67.573 C 226.731 67.600,226.528 69.192,226.053 69.209 C 225.914 69.214,225.350 69.589,224.800 70.044 C 224.250 70.498,224.044 70.741,224.343 70.585 C 225.087 70.194,224.523 71.978,223.643 72.800 C 223.289 73.130,222.982 73.625,222.960 73.900 C 222.840 75.394,222.752 75.600,222.232 75.600 C 221.919 75.600,221.540 76.164,221.388 76.853 C 221.186 77.775,221.020 77.960,220.763 77.553 C 220.481 77.108,220.411 77.130,220.406 77.667 C 220.403 78.033,220.175 78.424,219.900 78.535 C 219.516 78.690,219.514 78.744,219.890 78.768 C 220.537 78.810,219.908 80.502,218.806 81.686 C 218.363 82.162,218.000 82.777,218.000 83.053 C 218.000 83.329,217.600 83.835,217.111 84.177 C 216.622 84.520,216.436 84.800,216.698 84.800 C 216.969 84.800,217.070 85.074,216.932 85.434 C 216.735 85.946,216.620 85.965,216.332 85.534 C 216.105 85.193,216.068 85.399,216.231 86.100 C 216.392 86.792,216.322 87.200,216.043 87.200 C 215.800 87.200,215.600 87.526,215.600 87.925 C 215.600 88.323,215.240 89.036,214.800 89.508 C 214.360 89.980,214.000 90.549,214.000 90.771 C 214.000 90.994,213.550 92.160,213.000 93.363 C 212.450 94.565,212.000 95.740,212.000 95.974 C 212.000 96.208,211.849 96.400,211.664 96.400 C 211.216 96.400,210.512 97.995,210.180 99.764 L 209.911 101.200 200.800 101.200 L 191.689 101.200 191.420 99.764 C 191.088 97.995,190.384 96.400,189.936 96.400 C 189.751 96.400,189.600 96.208,189.600 95.974 C 189.600 95.740,189.150 94.565,188.600 93.363 C 188.050 92.160,187.600 90.994,187.600 90.771 C 187.600 90.549,187.240 89.980,186.800 89.508 C 186.360 89.036,186.000 88.323,186.000 87.925 C 186.000 87.526,185.800 87.200,185.557 87.200 C 185.278 87.200,185.208 86.792,185.369 86.100 C 185.532 85.399,185.495 85.193,185.268 85.534 C 184.980 85.965,184.865 85.946,184.668 85.434 C 184.530 85.074,184.631 84.800,184.902 84.800 C 185.164 84.800,184.978 84.520,184.489 84.177 C 184.000 83.835,183.600 83.329,183.600 83.053 C 183.600 82.777,183.237 82.162,182.794 81.686 C 181.665 80.474,181.109 78.907,181.720 78.658 C 182.080 78.512,182.075 78.455,181.700 78.432 C 181.425 78.414,181.197 78.085,181.194 77.700 C 181.189 77.144,181.115 77.114,180.837 77.553 C 180.580 77.960,180.414 77.775,180.212 76.853 C 180.060 76.164,179.681 75.600,179.368 75.600 C 178.848 75.600,178.760 75.394,178.640 73.900 C 178.618 73.625,178.311 73.130,177.957 72.800 C 177.077 71.978,176.513 70.194,177.257 70.585 C 177.556 70.741,177.350 70.498,176.800 70.044 C 176.250 69.589,175.679 69.214,175.532 69.209 C 175.384 69.204,175.145 68.660,175.000 68.000 C 174.855 67.340,174.551 66.800,174.325 66.800 C 174.099 66.800,174.022 66.521,174.153 66.179 C 174.284 65.838,174.233 65.656,174.041 65.775 C 173.848 65.894,173.600 65.642,173.488 65.215 C 173.376 64.788,173.482 64.373,173.722 64.293 C 173.963 64.212,173.844 64.026,173.459 63.878 C 173.040 63.717,172.857 63.768,173.003 64.005 C 173.137 64.222,173.078 64.400,172.872 64.400 C 172.666 64.400,172.273 63.860,172.000 63.200 C 171.727 62.540,171.362 62.000,171.191 62.000 C 170.639 62.000,169.973 59.602,170.521 59.588 C 170.784 59.581,170.664 59.380,170.253 59.142 C 168.709 58.245,166.299 55.097,167.700 55.806 C 167.975 55.945,167.851 55.776,167.424 55.430 C 166.996 55.083,166.501 54.800,166.324 54.800 C 166.146 54.800,166.000 54.575,166.000 54.300 C 165.999 54.025,165.549 53.277,165.000 52.638 C 164.450 51.999,164.000 51.336,164.000 51.166 C 164.000 50.996,163.753 50.610,163.452 50.309 C 163.150 50.008,162.606 49.185,162.242 48.480 C 161.877 47.776,161.385 47.200,161.147 47.200 C 160.909 47.200,160.814 46.939,160.937 46.620 C 161.071 46.270,160.851 45.943,160.380 45.794 C 159.951 45.657,159.600 45.368,159.600 45.149 C 159.600 44.931,159.809 44.882,160.065 45.040 C 160.320 45.198,159.825 44.580,158.965 43.666 C 158.104 42.752,157.400 41.778,157.400 41.502 C 157.400 41.226,157.148 41.000,156.840 41.000 C 156.232 41.000,155.609 39.673,155.878 38.952 C 155.971 38.705,155.775 38.399,155.443 38.272 C 155.007 38.105,154.908 38.228,155.085 38.720 C 155.228 39.118,154.888 38.935,154.265 38.279 C 153.679 37.663,153.200 36.990,153.200 36.783 C 153.200 36.576,152.840 36.182,152.400 35.907 C 151.960 35.632,151.600 35.202,151.600 34.951 C 151.600 34.700,151.026 33.934,150.324 33.247 C 149.622 32.561,149.257 32.000,149.512 32.000 C 149.767 32.000,149.867 31.720,149.736 31.377 C 149.604 31.034,149.253 30.848,148.954 30.962 C 148.654 31.078,148.205 30.776,147.948 30.285 C 147.692 29.798,147.239 29.256,146.942 29.080 C 146.644 28.904,146.400 28.431,146.400 28.029 C 146.400 27.627,146.130 27.074,145.800 26.800 C 145.470 26.526,145.200 26.433,145.200 26.593 C 145.200 26.754,144.678 26.326,144.040 25.642 C 143.401 24.959,142.681 24.400,142.440 24.400 C 142.198 24.400,142.000 24.209,142.000 23.976 C 142.000 23.743,142.198 23.675,142.440 23.825 C 142.749 24.016,142.745 23.844,142.426 23.248 C 142.176 22.782,141.740 22.400,141.456 22.400 C 140.830 22.400,139.200 20.730,139.200 20.088 C 139.200 19.835,138.878 19.456,138.484 19.245 C 136.965 18.432,134.731 16.090,135.269 15.875 C 135.570 15.755,135.429 15.649,134.943 15.632 C 134.471 15.614,133.976 15.315,133.843 14.967 C 133.491 14.051,133.539 13.917,134.100 14.245 C 134.375 14.406,134.257 14.147,133.838 13.669 C 133.016 12.732,132.573 12.509,133.042 13.268 C 133.239 13.587,133.109 13.651,132.633 13.468 C 132.249 13.321,131.859 13.200,131.767 13.200 C 131.675 13.200,131.597 12.795,131.594 12.300 C 131.589 11.589,131.510 11.523,131.215 11.989 C 130.820 12.614,130.464 12.119,130.247 10.643 C 130.197 10.302,130.002 9.883,129.814 9.712 C 129.626 9.540,129.601 9.625,129.759 9.900 C 130.305 10.848,129.285 10.397,127.744 9.009 C 126.043 7.477,123.718 7.094,122.804 8.196 M138.944 29.800 C 157.723 51.004,174.169 76.223,184.567 99.761 C 185.871 102.713,186.199 102.500,179.473 103.059 C 176.353 103.318,171.465 103.812,168.611 104.156 C 162.507 104.893,163.274 105.405,161.188 99.200 C 154.575 79.525,144.348 60.444,133.319 47.200 C 123.692 35.639,123.650 35.630,119.599 44.137 C 110.611 63.016,104.451 83.401,101.026 105.600 C 99.619 114.724,98.400 126.094,98.400 130.102 L 98.400 133.067 95.751 135.834 C 88.190 143.728,80.828 155.226,77.780 163.901 C 77.374 165.056,76.915 165.866,76.761 165.701 C 76.162 165.058,78.386 139.537,80.012 128.400 C 80.832 122.781,82.031 115.311,82.388 113.600 C 82.595 112.610,83.057 110.180,83.415 108.200 C 83.774 106.220,84.216 104.060,84.397 103.400 C 84.579 102.740,85.123 100.400,85.607 98.200 C 92.281 67.838,105.501 39.197,122.628 18.000 L 124.933 15.147 129.104 19.273 C 131.399 21.543,135.826 26.280,138.944 29.800 M278.993 18.026 C 296.097 39.195,309.323 67.854,315.993 98.200 C 316.477 100.400,317.021 102.740,317.203 103.400 C 317.384 104.060,317.826 106.220,318.185 108.200 C 318.543 110.180,319.005 112.610,319.212 113.600 C 319.569 115.311,320.768 122.781,321.588 128.400 C 323.214 139.537,325.438 165.058,324.839 165.701 C 324.685 165.866,324.226 165.056,323.820 163.901 C 320.772 155.226,313.410 143.728,305.849 135.834 L 303.200 133.067 303.195 130.434 C 303.185 124.674,301.503 110.688,299.213 97.315 C 296.425 81.037,289.754 60.423,282.012 44.160 C 278.918 37.662,277.505 36.717,274.943 39.433 C 260.514 54.732,248.189 76.065,240.412 99.200 C 238.326 105.405,239.093 104.893,232.989 104.156 C 230.135 103.812,225.247 103.318,222.127 103.059 C 215.401 102.500,215.729 102.713,217.033 99.761 C 227.067 77.059,243.311 51.899,261.171 31.400 C 264.490 27.590,276.319 15.200,276.637 15.200 C 276.677 15.200,277.737 16.472,278.993 18.026 M111.956 20.100 C 111.486 20.995,111.488 20.996,112.342 20.238 C 113.295 19.391,113.382 19.200,112.814 19.200 C 112.602 19.200,112.216 19.605,111.956 20.100 M289.000 20.000 C 289.398 20.440,289.792 20.800,289.876 20.800 C 289.960 20.800,289.835 20.440,289.600 20.000 C 289.365 19.560,288.970 19.200,288.724 19.200 C 288.478 19.200,288.602 19.560,289.000 20.000 M130.739 53.000 C 141.080 66.336,148.797 80.832,155.161 98.875 C 156.886 103.764,157.476 106.000,157.043 106.000 C 156.902 106.000,154.707 106.450,152.165 106.999 C 134.732 110.768,118.912 117.458,107.064 126.072 C 103.750 128.481,103.832 128.547,104.364 123.934 C 104.601 121.880,105.079 117.680,105.427 114.600 C 107.827 93.350,114.418 68.666,122.196 51.800 C 123.008 50.040,123.939 47.970,124.265 47.200 L 124.858 45.800 126.248 47.400 C 127.012 48.280,129.033 50.800,130.739 53.000 M277.565 47.700 C 277.970 48.635,278.886 50.660,279.600 52.200 C 287.760 69.804,294.568 96.633,296.804 120.000 C 297.025 122.310,297.317 125.055,297.454 126.100 C 297.760 128.438,297.791 128.438,294.494 126.042 C 282.690 117.460,266.842 110.763,249.435 106.999 C 246.893 106.450,244.698 106.000,244.557 106.000 C 244.124 106.000,244.714 103.764,246.439 98.875 C 253.477 78.919,262.971 61.899,274.759 48.100 C 276.908 45.584,276.663 45.619,277.565 47.700 M224.000 108.789 C 243.386 110.743,261.007 114.755,271.400 119.579 C 271.840 119.783,274.270 120.919,276.800 122.103 C 306.657 136.076,323.855 163.240,325.613 199.200 C 326.097 209.111,327.619 221.619,329.238 229.000 C 332.987 246.084,337.437 259.254,345.249 276.387 C 349.138 284.915,349.106 284.813,348.100 285.452 C 332.188 295.561,323.849 300.316,310.200 307.064 C 295.225 314.467,277.901 321.428,265.600 324.986 C 248.115 330.043,237.981 332.173,221.400 334.275 C 213.335 335.298,188.265 335.298,180.200 334.275 C 170.724 333.074,161.051 331.413,154.000 329.777 C 148.235 328.439,146.127 327.879,136.000 324.994 C 123.928 321.555,106.265 314.434,90.800 306.771 C 77.676 300.269,69.168 295.406,53.500 285.452 C 52.494 284.813,52.462 284.915,56.351 276.387 C 68.857 248.959,74.673 226.099,75.987 199.200 C 77.745 163.240,94.943 136.076,124.800 122.103 C 127.330 120.919,129.760 119.783,130.200 119.579 C 150.473 110.168,191.209 105.482,224.000 108.789 M145.600 145.011 C 118.409 147.598,103.768 160.396,98.710 186.000 C 97.706 191.080,97.127 253.950,97.988 264.400 C 100.166 290.847,114.006 306.163,140.000 310.891 L 145.000 311.800 199.800 311.800 C 251.213 311.800,254.872 311.754,259.000 311.062 C 263.491 310.308,269.952 308.736,271.911 307.919 C 289.931 300.404,298.603 288.633,301.614 267.600 C 302.672 260.214,302.813 197.483,301.790 189.914 C 297.985 161.779,282.940 147.673,253.886 145.000 C 245.113 144.193,154.103 144.202,145.600 145.011 M257.800 150.911 C 280.646 154.772,291.649 165.286,295.889 187.306 C 296.975 192.949,296.975 263.451,295.889 269.094 C 291.689 290.908,280.799 301.585,258.800 305.460 C 252.331 306.600,148.304 306.602,141.200 305.462 C 118.187 301.772,105.822 288.200,103.607 264.200 C 103.063 258.307,103.070 197.906,103.615 192.169 C 106.118 165.846,120.678 152.208,148.200 150.409 C 157.694 149.789,253.762 150.229,257.800 150.911 M118.800 325.026 C 124.404 327.123,132.401 329.779,137.400 331.204 C 145.467 333.503,157.277 336.400,158.586 336.400 C 158.938 336.400,159.828 336.652,160.565 336.959 L 161.904 337.519 161.309 339.659 C 159.976 344.460,159.241 349.190,159.221 353.100 C 159.210 355.355,159.135 357.200,159.056 357.200 C 158.545 357.200,152.326 355.036,148.828 353.640 C 134.132 347.779,121.919 337.813,115.807 326.693 C 113.765 322.978,113.589 323.076,118.800 325.026 M282.400 325.776 C 282.400 327.808,273.744 338.263,268.827 342.169 C 261.694 347.836,248.731 354.674,242.914 355.837 L 241.726 356.075 241.461 351.937 C 241.309 349.559,240.690 345.759,240.005 343.000 C 239.350 340.360,238.811 338.012,238.807 337.783 C 238.803 337.553,239.925 337.128,241.300 336.838 C 255.929 333.752,277.625 327.624,281.200 325.569 C 282.072 325.068,282.400 325.125,282.400 325.776 M115.060 338.211 C 115.189 338.547,115.678 339.022,116.147 339.265 C 116.932 339.673,116.922 339.624,116.030 338.654 C 114.915 337.442,114.732 337.358,115.060 338.211 M178.600 339.130 C 189.397 340.438,194.215 340.800,200.823 340.801 C 207.975 340.802,217.542 340.009,228.113 338.539 C 233.735 337.757,233.535 337.632,234.596 342.579 C 234.976 344.351,235.438 346.295,235.623 346.900 C 238.888 357.600,231.871 374.248,221.000 381.593 C 216.554 384.597,214.926 385.313,213.248 384.998 C 209.612 384.318,204.907 382.402,205.624 381.894 C 209.906 378.856,214.821 373.752,217.121 369.956 C 217.894 368.680,218.233 368.484,220.024 368.272 C 228.123 367.313,231.391 357.952,225.590 352.327 C 217.028 344.024,204.383 356.516,212.476 365.283 C 214.253 367.207,214.273 367.036,211.887 370.200 C 209.578 373.261,206.487 376.196,203.254 378.399 L 200.708 380.133 198.854 379.167 C 196.645 378.015,188.909 370.418,187.818 368.331 L 187.051 366.862 188.493 365.266 C 194.140 359.015,190.153 349.800,181.800 349.800 C 169.892 349.800,169.340 366.870,181.203 368.275 C 183.072 368.496,183.211 368.602,184.621 370.887 C 186.424 373.808,190.191 377.885,193.292 380.271 C 196.115 382.443,196.099 382.475,191.380 383.986 C 186.468 385.559,185.911 385.527,182.482 383.476 C 176.378 379.823,172.218 375.566,168.729 369.400 C 167.023 366.386,166.632 365.348,164.960 359.400 C 164.039 356.123,164.109 350.708,165.131 346.200 C 166.184 341.557,166.773 339.136,167.016 338.452 C 167.242 337.818,168.264 337.877,178.600 339.130 M172.800 384.786 C 172.800 384.998,173.205 385.384,173.700 385.644 C 174.595 386.114,174.596 386.112,173.838 385.258 C 172.991 384.305,172.800 384.218,172.800 384.786 M203.519 386.219 C 204.905 386.825,205.891 387.469,205.711 387.649 C 204.786 388.574,195.200 388.504,195.200 387.573 C 195.200 387.126,200.033 384.818,200.600 384.993 C 200.820 385.061,202.134 385.613,203.519 386.219 " stroke="none" fill="#070605" fill-rule="evenodd"></path><path id="path3" d="M124.265 47.200 C 123.939 47.970,123.008 50.040,122.196 51.800 C 114.418 68.666,107.827 93.350,105.427 114.600 C 105.079 117.680,104.601 121.880,104.364 123.934 C 103.832 128.547,103.750 128.481,107.064 126.072 C 118.912 117.458,134.732 110.768,152.165 106.999 C 154.707 106.450,156.902 106.000,157.043 106.000 C 157.476 106.000,156.886 103.764,155.161 98.875 C 148.045 78.700,138.187 61.148,126.248 47.400 L 124.858 45.800 124.265 47.200 M274.759 48.100 C 262.971 61.899,253.477 78.919,246.439 98.875 C 244.714 103.764,244.124 106.000,244.557 106.000 C 244.698 106.000,246.893 106.450,249.435 106.999 C 266.842 110.763,282.690 117.460,294.494 126.042 C 297.791 128.438,297.760 128.438,297.454 126.100 C 297.317 125.055,297.025 122.310,296.804 120.000 C 294.568 96.633,287.760 69.804,279.600 52.200 C 278.886 50.660,277.970 48.635,277.565 47.700 C 276.663 45.619,276.908 45.584,274.759 48.100 M148.200 150.409 C 120.678 152.208,106.118 165.846,103.615 192.169 C 103.070 197.906,103.063 258.307,103.607 264.200 C 105.822 288.200,118.187 301.772,141.200 305.462 C 148.304 306.602,252.331 306.600,258.800 305.460 C 280.799 301.585,291.689 290.908,295.889 269.094 C 296.975 263.451,296.975 192.949,295.889 187.306 C 291.649 165.286,280.646 154.772,257.800 150.911 C 253.762 150.229,157.694 149.789,148.200 150.409 M157.206 182.388 C 159.760 183.306,162.168 185.701,162.791 187.944 C 163.602 190.863,163.299 221.949,162.442 223.800 C 159.092 231.036,143.686 231.279,140.000 224.154 L 139.000 222.221 139.000 205.411 C 139.000 186.579,139.068 186.111,142.114 183.903 C 145.402 181.518,152.736 180.782,157.206 182.388 M253.829 182.254 C 256.692 183.204,258.361 184.618,259.465 187.029 L 260.433 189.144 260.316 206.072 L 260.200 223.000 259.152 224.600 C 256.746 228.273,255.023 228.959,248.200 228.959 C 241.243 228.959,238.700 227.788,236.705 223.668 C 235.315 220.799,235.293 190.060,236.678 187.199 C 239.050 182.300,247.030 179.999,253.829 182.254 M203.446 247.965 C 206.350 249.284,207.138 250.780,208.627 257.800 C 211.825 272.886,235.265 277.494,248.041 265.548 C 250.751 263.014,251.562 261.026,252.831 253.808 C 254.125 246.446,263.686 245.805,265.804 252.938 C 266.124 254.017,266.310 255.023,266.216 255.174 C 266.122 255.326,265.770 257.164,265.433 259.259 C 261.250 285.252,224.271 294.994,203.757 275.507 L 200.808 272.706 198.378 274.956 C 179.252 292.663,145.254 286.198,137.610 263.400 C 134.474 254.046,136.433 248.000,142.600 248.000 C 146.812 248.000,148.915 250.641,149.980 257.271 C 151.853 268.930,169.889 275.666,182.694 269.488 C 190.171 265.881,192.877 262.264,193.946 254.445 C 194.730 248.710,198.869 245.887,203.446 247.965 M114.400 323.867 C 114.400 327.529,125.825 340.404,133.712 345.631 C 140.793 350.323,155.857 357.200,159.056 357.200 C 159.135 357.200,159.210 355.355,159.221 353.100 C 159.241 349.190,159.976 344.460,161.309 339.659 L 161.904 337.519 160.565 336.959 C 159.828 336.652,158.938 336.400,158.586 336.400 C 157.277 336.400,145.467 333.503,137.400 331.204 C 132.401 329.779,124.404 327.123,118.800 325.026 C 114.833 323.542,114.400 323.427,114.400 323.867 M281.200 325.569 C 277.625 327.624,255.929 333.752,241.300 336.838 C 239.925 337.128,238.803 337.553,238.807 337.783 C 238.811 338.012,239.350 340.360,240.005 343.000 C 240.690 345.759,241.309 349.559,241.461 351.937 L 241.726 356.075 242.914 355.837 C 248.731 354.674,261.694 347.836,268.827 342.169 C 275.665 336.737,286.079 322.765,281.200 325.569 M231.105 338.283 C 231.602 338.379,232.322 338.375,232.705 338.275 C 233.087 338.175,232.680 338.096,231.800 338.101 C 230.920 338.105,230.607 338.187,231.105 338.283 M178.100 339.476 C 178.485 339.576,179.115 339.576,179.500 339.476 C 179.885 339.375,179.570 339.293,178.800 339.293 C 178.030 339.293,177.715 339.375,178.100 339.476 M222.100 339.476 C 222.485 339.576,223.115 339.576,223.500 339.476 C 223.885 339.375,223.570 339.293,222.800 339.293 C 222.030 339.293,221.715 339.375,222.100 339.476 M186.300 340.282 C 186.795 340.378,187.605 340.378,188.100 340.282 C 188.595 340.187,188.190 340.109,187.200 340.109 C 186.210 340.109,185.805 340.187,186.300 340.282 M213.500 340.282 C 213.995 340.378,214.805 340.378,215.300 340.282 C 215.795 340.187,215.390 340.109,214.400 340.109 C 213.410 340.109,213.005 340.187,213.500 340.282 M190.300 340.682 C 190.795 340.778,191.605 340.778,192.100 340.682 C 192.595 340.587,192.190 340.509,191.200 340.509 C 190.210 340.509,189.805 340.587,190.300 340.682 M209.500 340.682 C 209.995 340.778,210.805 340.778,211.300 340.682 C 211.795 340.587,211.390 340.509,210.400 340.509 C 209.410 340.509,209.005 340.587,209.500 340.682 M198.700 341.095 C 199.855 341.176,201.745 341.176,202.900 341.095 C 204.055 341.014,203.110 340.948,200.800 340.948 C 198.490 340.948,197.545 341.014,198.700 341.095 M235.693 348.800 C 235.693 349.570,235.775 349.885,235.876 349.500 C 235.976 349.115,235.976 348.485,235.876 348.100 C 235.775 347.715,235.693 348.030,235.693 348.800 M164.501 350.200 C 164.505 351.080,164.587 351.393,164.683 350.895 C 164.779 350.398,164.775 349.678,164.675 349.295 C 164.575 348.913,164.496 349.320,164.501 350.200 M236.131 353.400 C 236.133 354.940,236.205 355.521,236.292 354.691 C 236.379 353.861,236.377 352.601,236.289 351.891 C 236.200 351.181,236.129 351.860,236.131 353.400 M212.041 352.614 C 211.359 353.392,210.800 354.148,210.800 354.294 C 210.800 354.440,210.936 354.389,211.103 354.180 C 211.270 353.971,211.933 353.215,212.578 352.500 C 213.222 351.785,213.645 351.200,213.516 351.200 C 213.388 351.200,212.724 351.836,212.041 352.614 M224.800 351.325 C 224.800 351.394,225.385 351.979,226.100 352.625 L 227.400 353.800 226.225 352.500 C 225.130 351.288,224.800 351.016,224.800 351.325 M164.101 353.400 C 164.105 354.280,164.187 354.593,164.283 354.095 C 164.379 353.598,164.375 352.878,164.275 352.495 C 164.175 352.113,164.096 352.520,164.101 353.400 M164.493 356.800 C 164.493 357.570,164.575 357.885,164.676 357.500 C 164.776 357.115,164.776 356.485,164.676 356.100 C 164.575 355.715,164.493 356.030,164.493 356.800 M235.693 358.000 C 235.693 358.770,235.775 359.085,235.876 358.700 C 235.976 358.315,235.976 357.685,235.876 357.300 C 235.775 356.915,235.693 357.230,235.693 358.000 M209.714 359.000 C 209.717 360.100,209.795 360.503,209.887 359.895 C 209.979 359.286,209.977 358.386,209.882 357.895 C 209.787 357.403,209.711 357.900,209.714 359.000 M188.668 365.018 C 187.826 366.003,187.226 367.032,187.337 367.305 C 187.466 367.624,187.548 367.576,187.568 367.170 C 187.586 366.823,188.067 366.103,188.637 365.570 C 189.538 364.727,190.642 363.175,190.314 363.213 C 190.251 363.220,189.511 364.032,188.668 365.018 M226.226 365.100 C 225.362 366.205,225.293 366.390,225.963 365.804 C 226.765 365.104,227.823 363.600,227.514 363.600 C 227.451 363.600,226.872 364.275,226.226 365.100 M174.000 364.525 C 174.000 364.594,174.585 365.179,175.300 365.825 L 176.600 367.000 175.425 365.700 C 174.330 364.488,174.000 364.216,174.000 364.525 M208.386 373.900 L 206.200 376.200 208.500 374.014 C 210.637 371.982,210.983 371.600,210.686 371.600 C 210.624 371.600,209.589 372.635,208.386 373.900 M189.400 377.200 C 190.483 378.300,191.460 379.200,191.570 379.200 C 191.680 379.200,190.883 378.300,189.800 377.200 C 188.717 376.100,187.740 375.200,187.630 375.200 C 187.520 375.200,188.317 376.100,189.400 377.200 M224.400 378.497 C 222.750 380.073,221.940 380.979,222.600 380.512 C 223.778 379.679,227.948 375.584,227.585 375.617 C 227.483 375.626,226.050 376.922,224.400 378.497 M218.500 382.846 C 217.137 383.719,216.695 384.306,217.900 383.643 C 218.818 383.139,220.256 382.027,220.000 382.019 C 219.890 382.016,219.215 382.388,218.500 382.846 M182.400 383.379 C 182.400 383.489,182.940 383.859,183.600 384.200 C 184.260 384.541,184.800 384.731,184.800 384.621 C 184.800 384.511,184.260 384.141,183.600 383.800 C 182.940 383.459,182.400 383.269,182.400 383.379 M195.900 386.832 C 195.106 387.295,194.965 388.000,195.667 388.000 C 195.923 388.000,196.008 387.874,195.854 387.721 C 195.701 387.567,195.986 387.214,196.487 386.935 C 196.989 386.656,197.220 386.427,197.000 386.426 C 196.780 386.425,196.285 386.608,195.900 386.832 M204.982 387.170 C 205.105 387.369,204.979 387.623,204.702 387.734 C 204.390 387.860,204.456 387.949,204.876 387.968 C 205.787 388.011,206.150 387.343,205.377 387.046 C 205.037 386.916,204.859 386.972,204.982 387.170 M198.711 388.293 C 199.651 388.378,201.091 388.377,201.911 388.291 C 202.730 388.205,201.960 388.136,200.200 388.137 C 198.440 388.139,197.770 388.209,198.711 388.293 " stroke="none" fill="#043363" fill-rule="evenodd"></path><path id="path4" d="M146.314 181.928 C 145.937 182.078,148.035 182.200,150.976 182.200 C 153.916 182.200,156.115 182.068,155.861 181.906 C 155.286 181.540,147.247 181.558,146.314 181.928 M243.338 181.906 C 243.084 182.068,245.282 182.200,248.223 182.200 C 251.164 182.200,253.262 182.078,252.885 181.928 C 251.953 181.558,243.914 181.540,243.338 181.906 M144.000 182.694 C 141.914 183.496,139.191 186.977,139.204 188.826 C 139.206 189.142,139.632 188.500,140.151 187.400 C 141.155 185.271,142.260 184.087,144.200 183.065 C 145.358 182.454,145.232 182.220,144.000 182.694 M158.319 183.251 C 160.402 184.282,161.715 185.936,162.568 188.600 C 163.180 190.512,163.198 190.530,162.984 189.000 C 162.603 186.267,159.237 182.399,157.241 182.400 C 156.888 182.400,157.373 182.783,158.319 183.251 M240.600 182.967 C 239.018 183.673,237.526 185.385,236.573 187.587 C 235.282 190.570,235.393 220.960,236.705 223.668 C 238.021 226.387,241.301 228.855,243.487 228.773 C 243.879 228.759,243.451 228.512,242.536 228.226 C 239.993 227.431,238.402 226.083,237.358 223.840 L 236.408 221.800 236.404 205.379 L 236.400 188.957 237.444 186.861 C 238.260 185.225,238.939 184.507,240.544 183.587 C 242.671 182.367,242.701 182.029,240.600 182.967 M255.240 183.166 C 259.884 185.719,260.058 186.581,259.917 206.305 L 259.800 222.600 258.846 224.264 C 257.718 226.234,256.378 227.299,253.967 228.143 C 252.995 228.483,252.521 228.770,252.913 228.781 C 254.944 228.835,257.499 227.124,259.152 224.600 L 260.200 223.000 260.316 206.072 L 260.433 189.144 259.465 187.029 C 258.475 184.867,256.600 183.100,254.800 182.634 C 254.086 182.449,254.212 182.601,255.240 183.166 M138.982 205.400 C 138.982 213.980,139.035 217.433,139.100 213.074 C 139.164 208.714,139.164 201.694,139.099 197.474 C 139.035 193.253,138.982 196.820,138.982 205.400 M162.846 221.104 C 162.698 224.003,160.257 226.958,157.114 228.044 C 155.951 228.445,155.360 228.776,155.800 228.778 C 159.095 228.796,163.806 223.698,163.076 220.903 C 162.938 220.373,162.881 220.422,162.846 221.104 M139.425 222.600 C 139.975 225.383,142.836 228.162,145.610 228.607 C 146.798 228.798,146.707 228.713,144.980 228.017 C 142.578 227.050,140.653 225.181,139.805 222.992 C 139.333 221.773,139.244 221.681,139.425 222.600 M149.511 229.093 C 150.451 229.178,151.891 229.177,152.711 229.091 C 153.530 229.005,152.760 228.936,151.000 228.937 C 149.240 228.939,148.570 229.009,149.511 229.093 M246.711 229.093 C 247.651 229.178,249.091 229.177,249.911 229.091 C 250.730 229.005,249.960 228.936,248.200 228.937 C 246.440 228.939,245.770 229.009,246.711 229.093 M198.036 247.919 C 195.385 249.242,192.309 256.043,193.723 257.456 C 193.820 257.553,194.089 256.349,194.322 254.781 C 195.584 246.278,204.468 245.251,207.244 253.286 C 207.645 254.449,207.980 255.112,207.987 254.760 C 208.086 249.884,202.203 245.840,198.036 247.919 M140.000 248.449 C 138.710 248.964,137.273 250.314,136.562 251.680 C 135.651 253.431,135.911 253.379,137.311 251.531 C 141.114 246.508,148.065 248.181,149.002 254.345 C 149.421 257.104,150.072 260.062,150.226 259.908 C 150.433 259.700,149.655 254.950,149.126 253.200 C 147.885 249.090,143.768 246.947,140.000 248.449 M256.037 248.865 C 254.236 250.100,253.259 251.488,252.986 253.200 L 252.763 254.600 253.348 253.062 C 256.052 245.942,265.500 247.474,265.634 255.054 C 265.664 256.757,265.711 256.860,266.006 255.877 C 267.523 250.824,260.442 245.843,256.037 248.865 M136.044 255.323 C 135.944 256.055,136.910 261.445,137.241 262.000 C 137.463 262.373,137.498 261.919,137.333 260.800 C 137.030 258.743,136.111 254.838,136.044 255.323 M252.400 255.727 C 252.400 262.390,246.279 268.989,238.060 271.187 C 237.102 271.443,236.409 271.743,236.519 271.853 C 237.379 272.712,244.535 269.207,247.724 266.364 C 250.641 263.765,254.374 255.600,252.645 255.600 C 252.510 255.600,252.400 255.657,252.400 255.727 M208.163 258.059 C 208.891 262.613,212.854 267.359,218.019 269.861 C 220.737 271.177,223.938 272.195,224.281 271.853 C 224.391 271.743,223.698 271.457,222.740 271.218 C 215.650 269.448,209.961 264.335,208.812 258.700 C 208.275 256.067,207.764 255.561,208.163 258.059 M264.796 260.282 C 262.728 271.477,253.929 280.209,241.002 283.895 C 238.865 284.505,238.365 284.739,239.500 284.599 C 246.466 283.744,256.664 277.321,260.958 271.087 C 263.375 267.577,266.406 258.672,265.494 257.760 C 265.386 257.652,265.072 258.787,264.796 260.282 M192.786 259.660 C 192.529 260.617,192.219 261.563,192.098 261.762 C 191.976 261.961,192.079 261.998,192.327 261.845 C 192.830 261.534,193.766 258.433,193.453 258.119 C 193.343 258.009,193.043 258.702,192.786 259.660 M150.400 260.731 C 150.400 262.996,160.586 271.547,161.817 270.316 C 161.923 270.211,160.800 269.511,159.321 268.762 C 156.201 267.181,152.381 263.812,151.426 261.798 C 150.784 260.445,150.400 260.046,150.400 260.731 M190.489 263.950 C 187.915 267.153,181.879 270.370,176.900 271.193 C 173.455 271.762,173.010 272.216,176.300 271.805 C 181.762 271.123,189.784 266.594,191.625 263.153 C 192.256 261.974,191.845 262.262,190.489 263.950 M137.798 263.786 C 138.958 269.070,145.173 276.438,151.100 279.555 C 152.725 280.409,152.043 279.742,149.705 278.190 C 144.759 274.906,141.208 270.786,138.916 265.675 C 138.158 263.984,137.655 263.134,137.798 263.786 M162.772 270.742 C 163.506 271.248,168.189 272.138,168.877 271.903 C 169.165 271.805,168.140 271.509,166.600 271.245 C 165.060 270.981,163.440 270.671,163.000 270.556 C 162.383 270.395,162.331 270.438,162.772 270.742 M197.567 274.916 C 192.677 279.566,186.799 282.506,179.400 284.004 C 175.534 284.786,175.887 285.087,179.827 284.366 C 186.560 283.134,193.162 279.785,198.378 274.956 L 200.808 272.706 203.780 275.529 C 208.333 279.854,215.870 283.850,220.800 284.553 C 222.032 284.729,221.527 284.486,219.200 283.784 C 212.829 281.862,205.671 277.547,202.278 273.582 C 200.622 271.648,201.166 271.494,197.567 274.916 M226.241 272.477 C 228.135 272.814,232.963 272.799,234.574 272.453 C 235.220 272.314,233.258 272.200,230.215 272.200 C 226.932 272.200,225.316 272.313,226.241 272.477 M152.400 280.166 C 152.400 280.515,154.856 281.678,155.093 281.441 C 155.213 281.321,154.810 281.032,154.198 280.799 C 153.586 280.566,152.931 280.281,152.742 280.164 C 152.554 280.048,152.400 280.049,152.400 280.166 M155.800 281.876 C 156.835 282.897,164.265 284.852,166.773 284.764 C 167.338 284.744,166.403 284.476,164.696 284.167 C 162.028 283.685,159.768 283.047,156.200 281.769 C 155.673 281.580,155.536 281.617,155.800 281.876 M169.900 285.093 C 170.835 285.177,172.365 285.177,173.300 285.093 C 174.235 285.009,173.470 284.940,171.600 284.940 C 169.730 284.940,168.965 285.009,169.900 285.093 M223.908 285.326 C 225.368 285.762,235.568 285.775,236.676 285.342 C 237.211 285.133,234.682 285.000,230.184 285.000 C 225.756 285.000,223.251 285.130,223.908 285.326 M167.278 338.679 C 166.799 339.607,165.860 343.593,166.071 343.804 C 166.159 343.893,166.555 342.709,166.951 341.173 L 167.670 338.382 169.735 338.645 C 170.871 338.790,171.710 338.817,171.600 338.705 C 170.921 338.017,167.631 337.997,167.278 338.679 M172.705 339.083 C 173.202 339.179,173.922 339.175,174.305 339.075 C 174.687 338.975,174.280 338.896,173.400 338.901 C 172.520 338.905,172.207 338.987,172.705 339.083 M227.505 339.083 C 228.002 339.179,228.722 339.175,229.105 339.075 C 229.487 338.975,229.080 338.896,228.200 338.901 C 227.320 338.905,227.007 338.987,227.505 339.083 M180.000 339.998 C 181.824 340.345,185.873 340.527,185.567 340.248 C 185.475 340.165,183.780 339.997,181.800 339.876 C 179.207 339.718,178.703 339.752,180.000 339.998 M218.000 340.000 L 215.800 340.270 217.800 340.305 C 218.900 340.325,220.610 340.197,221.600 340.020 L 223.400 339.700 221.800 339.715 C 220.920 339.724,219.210 339.852,218.000 340.000 M187.100 340.682 C 187.595 340.778,188.405 340.778,188.900 340.682 C 189.395 340.587,188.990 340.509,188.000 340.509 C 187.010 340.509,186.605 340.587,187.100 340.682 M212.700 340.682 C 213.195 340.778,214.005 340.778,214.500 340.682 C 214.995 340.587,214.590 340.509,213.600 340.509 C 212.610 340.509,212.205 340.587,212.700 340.682 M233.667 341.000 C 233.661 341.852,234.692 345.277,234.750 344.600 C 234.769 344.380,234.534 343.300,234.228 342.200 C 233.922 341.100,233.669 340.560,233.667 341.000 M195.900 341.333 C 198.595 341.516,203.005 341.516,205.700 341.333 C 210.139 341.031,209.678 341.000,200.800 341.000 C 191.922 341.000,191.461 341.031,195.900 341.333 M165.452 345.471 C 164.930 348.095,164.708 349.787,164.910 349.600 C 165.200 349.332,166.041 344.708,165.837 344.504 C 165.749 344.415,165.575 344.851,165.452 345.471 M178.073 349.808 C 175.773 350.807,172.797 353.725,172.801 354.978 C 172.802 355.210,173.140 354.860,173.551 354.200 C 174.796 352.201,176.644 350.731,178.878 349.959 C 180.045 349.556,180.640 349.227,180.200 349.229 C 179.760 349.230,178.803 349.491,178.073 349.808 M184.701 349.952 C 185.856 350.351,187.203 351.020,187.694 351.439 C 188.571 352.187,188.576 352.187,187.993 351.437 C 187.297 350.541,184.549 349.216,183.400 349.222 C 182.960 349.224,183.545 349.553,184.701 349.952 M216.000 349.606 C 215.578 349.882,215.815 349.923,216.800 349.742 C 218.525 349.425,218.851 349.198,217.567 349.206 C 217.035 349.209,216.330 349.389,216.000 349.606 M220.600 349.436 C 221.040 349.552,221.936 349.821,222.591 350.034 C 223.432 350.308,223.657 350.297,223.356 349.996 C 223.122 349.762,222.226 349.493,221.365 349.398 C 220.504 349.303,220.160 349.320,220.600 349.436 M235.742 353.400 C 235.741 355.380,235.808 356.240,235.892 355.312 C 235.976 354.384,235.977 352.764,235.895 351.712 C 235.812 350.660,235.743 351.420,235.742 353.400 M212.676 351.700 C 211.430 352.933,211.425 352.949,212.581 352.003 C 213.252 351.455,213.971 350.870,214.180 350.703 C 214.389 350.536,214.431 350.400,214.274 350.400 C 214.117 350.400,213.398 350.985,212.676 351.700 M224.200 350.654 C 224.420 350.848,225.229 351.545,225.999 352.203 L 227.397 353.400 226.399 352.263 C 225.849 351.638,225.040 350.941,224.600 350.714 C 224.160 350.488,223.980 350.461,224.200 350.654 M164.520 353.600 C 164.520 354.810,164.595 355.305,164.687 354.700 C 164.778 354.095,164.778 353.105,164.687 352.500 C 164.595 351.895,164.520 352.390,164.520 353.600 M189.741 353.751 C 190.993 355.596,191.356 357.311,191.114 360.236 C 191.012 361.460,191.077 362.205,191.260 361.917 C 192.356 360.188,191.154 354.250,189.415 352.811 C 188.969 352.442,189.091 352.794,189.741 353.751 M210.159 355.037 C 209.828 355.828,209.613 356.640,209.681 356.842 C 209.748 357.044,210.095 356.397,210.452 355.405 C 211.225 353.256,211.014 352.991,210.159 355.037 M227.930 355.182 C 228.298 356.051,228.656 356.604,228.724 356.409 C 228.850 356.049,227.713 353.600,227.419 353.600 C 227.331 353.600,227.561 354.312,227.930 355.182 M172.124 359.000 C 172.126 360.320,172.201 360.812,172.290 360.093 C 172.379 359.374,172.377 358.294,172.286 357.693 C 172.195 357.092,172.122 357.680,172.124 359.000 M164.838 357.600 C 164.795 358.369,165.610 361.324,165.810 361.124 C 165.893 361.040,165.716 360.079,165.416 358.986 C 165.117 357.894,164.856 357.270,164.838 357.600 M235.040 359.240 C 234.893 360.157,234.852 360.985,234.947 361.080 C 235.042 361.176,235.246 360.510,235.400 359.600 C 235.554 358.690,235.596 357.862,235.493 357.760 C 235.390 357.657,235.187 358.323,235.040 359.240 M166.010 362.085 C 165.999 362.834,167.600 367.334,167.804 367.128 C 167.873 367.057,167.500 365.740,166.975 364.200 C 166.450 362.660,166.016 361.708,166.010 362.085 M234.046 362.839 C 233.801 363.543,233.613 364.318,233.628 364.560 C 233.644 364.802,233.914 364.296,234.230 363.435 C 234.545 362.574,234.733 361.800,234.648 361.715 C 234.562 361.629,234.292 362.135,234.046 362.839 M210.016 362.309 C 209.995 362.962,212.051 366.083,212.323 365.811 C 212.436 365.697,212.252 365.289,211.914 364.902 C 211.576 364.516,211.015 363.660,210.666 363.000 C 210.317 362.340,210.025 362.029,210.016 362.309 M173.213 363.686 C 173.191 364.173,175.663 366.808,176.555 367.248 C 177.020 367.477,176.828 367.197,176.128 366.626 C 175.429 366.054,174.490 365.095,174.041 364.493 C 173.592 363.892,173.220 363.529,173.213 363.686 M188.575 365.700 L 187.400 367.000 188.700 365.825 C 189.415 365.179,190.000 364.594,190.000 364.525 C 190.000 364.216,189.670 364.488,188.575 365.700 M226.576 365.239 C 226.427 365.481,225.481 366.201,224.474 366.839 C 223.467 367.478,222.832 368.000,223.062 368.000 C 223.554 368.000,226.601 365.845,226.984 365.226 C 227.129 364.992,227.157 364.800,227.047 364.800 C 226.937 364.800,226.725 364.998,226.576 365.239 M187.600 367.344 C 187.600 368.344,191.891 373.507,194.520 375.671 C 196.114 376.983,195.894 376.684,193.576 374.392 C 191.914 372.746,189.889 370.412,189.076 369.205 C 188.264 367.998,187.600 367.160,187.600 367.344 M168.600 368.800 C 168.941 369.460,169.311 370.000,169.421 370.000 C 169.531 370.000,169.341 369.460,169.000 368.800 C 168.659 368.140,168.289 367.600,168.179 367.600 C 168.069 367.600,168.259 368.140,168.600 368.800 M212.000 369.200 C 211.530 369.860,211.236 370.400,211.346 370.400 C 211.456 370.400,211.930 369.860,212.400 369.200 C 212.870 368.540,213.164 368.000,213.054 368.000 C 212.944 368.000,212.470 368.540,212.000 369.200 M181.010 368.688 C 182.414 368.818,182.763 369.065,183.746 370.617 C 184.365 371.596,185.051 372.508,185.269 372.643 C 185.488 372.778,184.996 371.879,184.177 370.644 C 182.746 368.490,182.621 368.403,181.043 368.470 L 179.400 368.540 181.010 368.688 M217.949 369.100 C 217.471 369.710,217.478 369.740,218.002 369.333 C 218.332 369.076,219.232 368.789,220.002 368.697 L 221.400 368.528 219.949 368.464 C 218.985 368.421,218.314 368.635,217.949 369.100 M230.113 371.175 C 227.918 374.663,224.218 378.677,221.425 380.601 C 218.948 382.306,218.518 382.826,220.495 381.723 C 223.457 380.070,232.799 369.401,231.955 368.636 C 231.870 368.559,231.041 369.702,230.113 371.175 M170.314 371.599 C 173.091 376.159,178.469 381.166,183.200 383.595 C 184.753 384.392,183.994 383.774,181.209 381.975 C 177.439 379.538,174.774 377.093,172.380 373.875 C 169.815 370.426,169.165 369.710,170.314 371.599 M213.672 374.809 C 212.502 376.124,211.647 377.200,211.773 377.200 C 212.028 377.200,214.709 374.299,215.523 373.143 C 216.453 371.820,215.846 372.367,213.672 374.809 M187.125 375.100 C 188.005 376.145,189.315 377.540,190.037 378.200 C 190.758 378.860,190.104 378.005,188.583 376.300 C 185.522 372.870,184.626 372.131,187.125 375.100 M205.394 376.128 C 204.291 377.048,202.941 378.123,202.394 378.517 C 201.438 379.207,201.451 379.207,202.724 378.517 C 203.944 377.857,208.057 374.422,207.600 374.446 C 207.490 374.452,206.497 375.209,205.394 376.128 M209.386 379.112 C 208.719 379.710,207.549 380.707,206.786 381.326 C 205.637 382.259,205.722 382.232,207.281 381.171 C 208.952 380.034,211.220 377.981,210.770 378.012 C 210.676 378.018,210.054 378.513,209.386 379.112 M192.475 383.073 C 191.526 383.409,190.821 383.754,190.907 383.841 C 191.090 384.023,194.800 382.805,194.800 382.562 C 194.800 382.312,194.345 382.412,192.475 383.073 M216.459 383.632 C 215.022 384.413,213.970 384.727,213.259 384.588 C 212.227 384.387,212.224 384.392,213.139 384.792 C 214.126 385.224,216.480 384.417,218.200 383.058 C 219.335 382.161,218.911 382.300,216.459 383.632 M184.976 384.598 C 185.846 385.272,187.004 385.332,188.200 384.764 C 188.833 384.464,188.728 384.426,187.700 384.582 C 186.985 384.691,185.905 384.604,185.300 384.388 C 184.271 384.021,184.250 384.034,184.976 384.598 M198.000 386.200 C 197.450 386.514,197.180 386.772,197.400 386.772 C 197.620 386.772,198.250 386.514,198.800 386.200 C 199.350 385.886,199.620 385.628,199.400 385.628 C 199.180 385.628,198.550 385.886,198.000 386.200 M203.100 386.488 C 204.787 387.302,204.003 387.600,200.176 387.600 C 197.759 387.600,196.443 387.455,196.597 387.205 C 196.737 386.978,196.577 386.911,196.223 387.046 C 194.748 387.612,196.342 388.000,200.124 387.994 C 204.849 387.987,205.952 387.609,204.078 386.640 C 203.397 386.288,202.696 386.012,202.520 386.027 C 202.344 386.042,202.605 386.249,203.100 386.488 " stroke="none" fill="#047692" fill-rule="evenodd"></path></g></svg>